<svg width="39" height="39" viewBox="0 0 39 39" fill="none" xmlns="http://www.w3.org/2000/svg">
<path d="M19.5641 1.84082C20.4494 1.84082 21.2087 2.36149 21.5418 3.10553C21.5752 3.17978 21.6492 3.22055 21.7234 3.22055C21.7765 3.22055 21.8296 3.19942 21.868 3.15508C22.0707 2.91875 22.3238 2.72857 22.6097 2.59789C22.8955 2.4672 23.2072 2.39916 23.5228 2.39855C23.7075 2.39855 23.8953 2.42206 24.0821 2.47072C24.9387 2.69482 25.5347 3.39123 25.658 4.19598C25.6726 4.29226 25.7605 4.35476 25.8514 4.35476C25.8886 4.35476 25.9264 4.34434 25.9599 4.32142C26.3245 4.07229 26.7586 3.93858 27.2035 3.9384C27.5692 3.9384 27.9395 4.02932 28.2792 4.22068C29.0472 4.65326 29.4382 5.47661 29.3437 6.28492C29.3303 6.39906 29.4279 6.49355 29.5376 6.49355C29.559 6.49355 29.5806 6.48998 29.6022 6.48224C29.8401 6.39778 30.0913 6.35457 30.3445 6.35457C30.8964 6.35457 31.4479 6.55962 31.869 6.97077C32.4961 7.58281 32.6554 8.47669 32.35 9.23352C32.3005 9.35614 32.3986 9.49036 32.5302 9.49036C32.536 9.49036 32.5415 9.49007 32.547 9.48962C32.6103 9.48426 32.6733 9.48143 32.7365 9.48143C33.4824 9.48143 34.2075 9.85792 34.6073 10.5339C35.0508 11.2835 34.9674 12.187 34.4716 12.841C34.3881 12.9513 34.4557 13.1144 34.5943 13.1382C35.3957 13.2757 36.0828 13.8498 36.3073 14.6673C36.5369 15.5033 36.2168 16.3552 35.5643 16.8616C35.4543 16.9469 35.4764 17.1216 35.604 17.1796C36.3413 17.5149 36.8532 18.243 36.8532 19.0893C36.8532 19.9535 36.32 20.6943 35.5575 21.0193C35.4268 21.0752 35.3975 21.2483 35.5066 21.3377C36.1308 21.8477 36.4323 22.6807 36.2076 23.4984C35.9781 24.3344 35.2645 24.9159 34.4397 25.0363C34.3008 25.0566 34.2307 25.2186 34.3111 25.331C34.7782 25.9812 34.8483 26.8614 34.4146 27.5945C34.0147 28.27 33.2898 28.6468 32.5438 28.6468C32.4621 28.6468 32.3805 28.6422 32.2994 28.6333C32.2923 28.6324 32.2852 28.632 32.2781 28.6319C32.1487 28.6319 32.0514 28.763 32.0971 28.8855C32.3757 29.6313 32.2098 30.4993 31.5965 31.0977C31.3965 31.2934 31.1589 31.4487 30.8972 31.5544C30.6356 31.6602 30.3552 31.7144 30.0721 31.714C29.8024 31.714 29.5328 31.6649 29.2779 31.567C29.2562 31.5586 29.233 31.5542 29.2096 31.5542C29.1021 31.5542 29.0053 31.6464 29.0155 31.7595C29.0868 32.5503 28.6965 33.3469 27.9453 33.7701C27.6184 33.9549 27.2474 34.0522 26.8697 34.0522C26.406 34.052 25.9544 33.9067 25.5813 33.6376C25.5492 33.6143 25.5102 33.6018 25.4701 33.6019C25.3808 33.6019 25.2938 33.6629 25.2766 33.7573C25.1359 34.5392 24.5477 35.2101 23.7099 35.429C23.5275 35.4769 23.3394 35.5012 23.1505 35.5013C22.8257 35.5006 22.5053 35.4286 22.2129 35.2906C21.9205 35.1525 21.6637 34.952 21.4614 34.7038C21.4436 34.6821 21.4209 34.6646 21.3951 34.6527C21.3693 34.6408 21.3411 34.6348 21.3126 34.6351C21.2407 34.6351 21.169 34.6723 21.1358 34.7425C20.792 35.4623 20.0458 35.9615 19.1786 35.9615C18.2932 35.9615 17.5342 35.4413 17.201 34.6973C17.1855 34.6629 17.16 34.6337 17.1278 34.6133C17.0955 34.5929 17.0579 34.5821 17.0194 34.5823C16.9664 34.5823 16.9131 34.6031 16.8747 34.6476C16.672 34.8838 16.4189 35.074 16.1331 35.2046C15.8473 35.3353 15.5357 35.4033 15.2202 35.404C15.0312 35.4039 14.8431 35.3796 14.6606 35.3316C13.804 35.1077 13.2081 34.4113 13.0849 33.6067C13.0701 33.5103 12.9822 33.4478 12.8913 33.4478C12.8542 33.4478 12.8166 33.4582 12.7829 33.4812C12.4183 33.7304 11.9842 33.8641 11.5392 33.8643C11.1737 33.8643 10.8033 33.7735 10.4636 33.5818C9.69562 33.1491 9.30485 32.3259 9.39915 31.5176C9.41241 31.4035 9.3149 31.3093 9.20521 31.3093C9.18389 31.3093 9.1621 31.3125 9.14062 31.3203C8.90143 31.4055 8.64976 31.4479 8.39838 31.4479C8.11523 31.4484 7.83477 31.3942 7.57311 31.2885C7.31146 31.1828 7.07377 31.0276 6.87369 30.8319C6.24663 30.2197 6.08758 29.326 6.39288 28.569C6.4424 28.4465 6.34428 28.3121 6.21266 28.3121C6.20706 28.3122 6.20147 28.3124 6.1959 28.3129C6.13252 28.3182 6.0696 28.3211 6.00638 28.3211C5.26048 28.3211 4.53531 27.9446 4.1354 27.2686C3.69207 26.519 3.7754 25.6153 4.27129 24.9615C4.35478 24.8512 4.28699 24.6881 4.1485 24.6643C3.34716 24.5268 2.66007 23.9527 2.43551 23.1352C2.20592 22.2992 2.526 21.4473 3.17851 20.941C3.2885 20.8556 3.26641 20.6809 3.1389 20.623C2.40138 20.2879 1.88965 19.5596 1.88965 18.7132C1.88965 17.8493 2.42286 17.1082 3.18567 16.7832C3.31608 16.7273 3.34533 16.5541 3.23625 16.4651C2.61208 15.955 2.31058 15.1218 2.53514 14.3041C2.76473 13.4681 3.47848 12.8866 4.30298 12.7662C4.44208 12.7459 4.51216 12.5839 4.43156 12.4715C3.96462 11.8213 3.89454 10.9411 4.32827 10.2082C4.72803 9.53233 5.45305 9.156 6.19894 9.156C6.2803 9.156 6.36196 9.16031 6.44346 9.16939C6.45062 9.17028 6.45794 9.17058 6.46494 9.17058C6.59413 9.17058 6.69148 9.03948 6.64578 8.91731C6.36698 8.17119 6.53304 7.30321 7.14609 6.70486C7.34615 6.50913 7.58384 6.35395 7.8455 6.24823C8.10716 6.1425 8.38762 6.08832 8.67078 6.0888C8.94043 6.0888 9.21009 6.13761 9.46497 6.23567C9.48751 6.24445 9.51067 6.24832 9.53322 6.24832C9.64078 6.24832 9.73752 6.15606 9.72731 6.04311C9.65601 5.25221 10.0463 4.45565 10.7975 4.03244C11.1244 3.84761 11.4954 3.75029 11.8731 3.7503C12.3343 3.7503 12.7878 3.89494 13.1615 4.16503C13.1956 4.18943 13.2345 4.20074 13.2727 4.20074C13.362 4.20074 13.449 4.14003 13.4662 4.04524C13.607 3.26326 14.1952 2.59259 15.033 2.37355C15.2154 2.32565 15.4035 2.30134 15.5924 2.30123C15.9171 2.30189 16.2376 2.37392 16.5299 2.51196C16.8223 2.65 17.0792 2.85053 17.2814 3.09868C17.3195 3.14541 17.3748 3.16773 17.4303 3.16773C17.5022 3.16773 17.5738 3.13008 17.6073 3.05999C17.9509 2.34021 18.6971 1.84097 19.5641 1.84097" fill="white"/>
<path d="M27.6453 27.4097C25.6739 27.4097 25.8285 24.6937 27.6453 24.6937C29.462 24.6937 29.6166 27.4096 27.6453 27.4096V27.4097ZM11.3548 27.4096C9.38339 27.4096 9.53802 24.6937 11.3548 24.6937C13.1717 24.6937 13.3261 27.4096 11.3548 27.4096ZM33.6014 17.3753H32.9335C31.7358 17.3753 30.7071 16.6766 30.2467 15.6753C29.7863 16.6766 28.7577 17.3753 27.5601 17.3753C26.3623 17.3753 25.334 16.6766 24.8736 15.6753C24.4132 16.6766 23.3844 17.3753 22.1867 17.3753C20.9892 17.3753 19.9604 16.6766 19.5 15.6753C19.0396 16.6766 18.011 17.3753 16.8135 17.3753C15.6158 17.3753 14.5873 16.6766 14.1266 15.6753C13.6662 16.6766 12.6378 17.3753 11.4401 17.3753C10.2423 17.3753 9.21382 16.6766 8.75343 15.6753C8.29304 16.6766 7.26423 17.3753 6.06648 17.3753H5.40621C4.40452 18.427 5.03996 19.3157 7.51378 19.3157V24.7166C7.51378 29.7924 13.5036 32.3305 19.4936 32.3305C25.4834 32.3305 31.4733 29.7926 31.4733 24.7166V19.3155C33.9492 19.3155 34.5953 18.427 33.6016 17.3751" fill="#142443"/>
<path d="M19.692 9.32867e-08C18.829 0.00104869 17.987 0.259154 17.2782 0.739866C16.7866 0.553316 16.2638 0.457889 15.7364 0.458473C15.3656 0.45861 14.9965 0.506135 14.6383 0.599839C13.8039 0.8192 13.0579 1.28232 12.5004 1.92719C12.3451 1.91002 12.1889 1.90138 12.0325 1.9013C11.2896 1.90187 10.5598 2.09302 9.91629 2.4556C9.1689 2.87796 8.57145 3.51324 8.2039 4.2764C7.3148 4.4069 6.49457 4.80913 5.84709 5.44081C5.23625 6.03821 4.8273 6.80396 4.67523 7.63511C3.8617 7.98466 3.16532 8.57973 2.70843 9.35204C2.2773 10.0827 2.08539 10.9248 2.15846 11.7651C1.4538 12.3153 0.947739 13.0712 0.714204 13.9223C0.491593 14.7373 0.529496 15.5992 0.822828 16.3925C0.288183 17.102 -0.000136858 17.96 4.87344e-08 18.841C4.87344e-08 19.6981 0.275444 20.5182 0.760213 21.1993C0.431793 22.0198 0.380757 22.9215 0.614569 23.7724C0.839631 24.5867 1.31404 25.3144 1.97427 25.8581C1.87485 26.7338 2.0649 27.6177 2.51663 28.3804C2.94979 29.1106 3.60106 29.6941 4.38318 30.0527C4.51972 30.9234 4.93757 31.7287 5.57576 32.3511C6.19673 32.9569 6.97644 33.3517 7.8238 33.4983C8.18683 34.3034 8.80336 34.9743 9.58371 35.4136C10.3332 35.8359 11.197 36.0243 12.0592 35.9534C12.6233 36.6398 13.397 37.1325 14.2676 37.3596C15.1038 37.5789 15.9885 37.5429 16.8031 37.2567C17.5299 37.7766 18.4074 38.0568 19.3082 38.0567C20.1711 38.0556 21.0132 37.7974 21.722 37.3166C22.2135 37.5033 22.7363 37.5988 23.2636 37.5982C23.6333 37.5982 24.0028 37.5507 24.3619 37.4567C25.1961 37.2374 25.9419 36.7744 26.4993 36.1296C26.6548 36.1467 26.8111 36.1553 26.9676 36.1554C27.7085 36.1554 28.4403 35.9635 29.0837 35.6011C29.8313 35.1788 30.4289 34.5435 30.7964 33.7803C31.6855 33.6498 32.5054 33.2475 33.1529 32.6158C33.7636 32.0183 34.1725 31.2526 34.3248 30.4215C35.1385 30.0721 35.8348 29.4771 36.2916 28.7048C36.7227 27.9741 36.9146 27.132 36.8415 26.2917C37.5463 25.7415 38.0524 24.9855 38.2859 24.1342C38.5086 23.3193 38.4706 22.4575 38.1773 21.6643C38.7119 20.9546 39.0002 20.0966 39 19.2155C39 18.3586 38.7244 17.5385 38.2401 16.8577C38.5685 16.037 38.6194 15.1352 38.3853 14.2842C38.158 13.4563 37.6743 12.734 37.0257 12.1986C37.1252 11.3228 36.9353 10.439 36.4837 9.67629C36.0503 8.94618 35.399 8.36273 34.617 8.004C34.4804 7.13331 34.0626 6.32803 33.4244 5.70569C32.8033 5.0996 32.0237 4.70496 31.1762 4.55869C30.8135 3.75339 30.197 3.08223 29.4166 2.64295C28.667 2.22063 27.8032 2.0323 26.9409 2.10323C26.3768 1.41685 25.6031 0.924176 24.7325 0.696861C24.3744 0.603115 24.0053 0.555539 23.6346 0.555346C23.1379 0.555346 22.6524 0.639719 22.197 0.800132C21.4703 0.280088 20.5928 -0.000186679 19.692 9.32867e-08ZM19.692 2.03969C20.5736 2.03969 21.3297 2.55813 21.6617 3.29904C21.6947 3.373 21.7684 3.41362 21.8423 3.41362C21.8952 3.41362 21.9482 3.39264 21.9863 3.34815C22.1882 3.11286 22.4403 2.92355 22.725 2.79348C23.0097 2.66341 23.3201 2.59573 23.6344 2.59518C23.8183 2.59518 24.0054 2.61855 24.1914 2.66706C25.0445 2.89012 25.6379 3.58371 25.7607 4.38503C25.7753 4.48086 25.8628 4.54306 25.9536 4.54306C25.9905 4.54306 26.0281 4.53264 26.0614 4.50988C26.4245 4.26178 26.8569 4.12864 27.3 4.12849C27.664 4.12849 28.0328 4.21896 28.3713 4.40943C29.1361 4.84038 29.5254 5.66015 29.4314 6.46505C29.4181 6.57873 29.5152 6.67278 29.6244 6.67278C29.6457 6.67278 29.6674 6.66921 29.6887 6.66162C29.9256 6.57748 30.1758 6.53442 30.4279 6.53439C30.9777 6.53439 31.5269 6.73855 31.9463 7.14807C32.5708 7.75743 32.7294 8.64759 32.4253 9.4013C32.3758 9.52332 32.4736 9.65695 32.6048 9.65695C32.6104 9.657 32.616 9.65675 32.6215 9.6562C32.6842 9.6508 32.7472 9.64807 32.8101 9.64802C33.553 9.64802 34.2752 10.023 34.6733 10.6962C35.115 11.4426 35.032 12.3423 34.538 12.9935C34.455 13.1035 34.5224 13.2658 34.6604 13.2896C35.4584 13.4265 36.1427 13.9981 36.3664 14.8122C36.5949 15.6448 36.2762 16.493 35.6263 16.9973C35.5169 17.0822 35.5388 17.2562 35.6659 17.3141C36.4002 17.6477 36.9098 18.3728 36.9098 19.2155C36.9098 20.0761 36.3789 20.8137 35.6194 21.1375C35.4895 21.1932 35.4602 21.3655 35.5688 21.4545C36.1904 21.9623 36.4907 22.7918 36.267 23.6062C36.0385 24.4386 35.3277 25.0176 34.5064 25.1374C34.3679 25.1577 34.2983 25.319 34.3784 25.431C34.8435 26.0783 34.9131 26.955 34.4814 27.685C34.0831 28.3577 33.3612 28.7329 32.6183 28.7329C32.5373 28.7329 32.4558 28.7283 32.3749 28.7194C32.3678 28.7185 32.3607 28.7181 32.3535 28.718C32.2248 28.718 32.1279 28.8487 32.1733 28.9705C32.4509 29.7131 32.2857 30.5776 31.6748 31.1735C31.4757 31.3684 31.239 31.523 30.9785 31.6283C30.7179 31.7336 30.4387 31.7876 30.1567 31.7871C29.8881 31.7871 29.6195 31.7382 29.3657 31.6407C29.3441 31.6324 29.3211 31.6281 29.2979 31.6281C29.1907 31.6281 29.0942 31.7199 29.1044 31.8325C29.1756 32.6199 28.7868 33.4132 28.0386 33.8346C27.7131 34.0186 27.3437 34.1155 26.9676 34.1155C26.5083 34.1155 26.0567 33.9715 25.6844 33.7027C25.6524 33.6795 25.6135 33.667 25.5736 33.667C25.4848 33.667 25.3981 33.7277 25.3811 33.8218C25.2409 34.6005 24.655 35.2685 23.8207 35.4865C23.6344 35.5353 23.4475 35.5583 23.2636 35.5583C22.9402 35.5577 22.6211 35.486 22.3299 35.3486C22.0387 35.2112 21.7829 35.0115 21.5814 34.7645C21.5636 34.7428 21.5411 34.7254 21.5154 34.7135C21.4898 34.7016 21.4617 34.6956 21.4333 34.6959C21.3617 34.6959 21.2902 34.7331 21.2572 34.803C20.9148 35.5197 20.1717 36.0168 19.3082 36.0168C18.4263 36.0168 17.6705 35.4987 17.3385 34.7579C17.3231 34.7237 17.2977 34.6946 17.2656 34.6743C17.2335 34.6539 17.196 34.6432 17.1577 34.6433C17.1302 34.6431 17.1031 34.6489 17.0782 34.6601C17.0533 34.6713 17.0313 34.6878 17.0137 34.7084C16.8118 34.9437 16.5597 35.133 16.2751 35.2631C15.9904 35.3932 15.68 35.4609 15.3658 35.4615C15.1819 35.4615 14.9948 35.4383 14.8088 35.3896C13.9556 35.1664 13.3622 34.473 13.2394 33.6719C13.2248 33.5758 13.1372 33.5136 13.0466 33.5136C13.0097 33.5136 12.9721 33.524 12.9387 33.5469C12.5756 33.795 12.1432 33.9282 11.7001 33.9283C11.336 33.9283 10.9673 33.8378 10.6288 33.6471C9.86403 33.2163 9.47494 32.3965 9.56878 31.5916C9.58204 31.4779 9.48499 31.384 9.37561 31.384C9.35443 31.384 9.33295 31.3873 9.31132 31.395C9.07304 31.4799 8.82259 31.5223 8.57213 31.5223C8.29015 31.5227 8.01087 31.4687 7.75032 31.3634C7.48976 31.2582 7.25307 31.1036 7.05383 30.9087C6.42921 30.2991 6.27077 29.4091 6.57485 28.6554C6.62421 28.5333 6.52656 28.3996 6.39539 28.3996C6.38979 28.3996 6.3842 28.3998 6.37863 28.4003C6.31591 28.4057 6.25298 28.4084 6.19002 28.4085C5.44718 28.4085 4.7249 28.0335 4.32682 27.3603C3.88501 26.614 3.96819 25.7142 4.4621 25.063C4.54513 24.9532 4.47779 24.7907 4.33977 24.7671C3.54177 24.6301 2.85743 24.0584 2.63378 23.2443C2.40526 22.4119 2.72397 21.5635 3.37373 21.0595C3.48342 20.9744 3.46133 20.8006 3.33427 20.7429C2.59996 20.4091 2.09036 19.684 2.09036 18.8411C2.09036 17.9807 2.62129 17.2429 3.38074 16.919C3.51069 16.8635 3.53994 16.6912 3.43132 16.6023C2.80974 16.0945 2.50946 15.2649 2.73311 14.4504C2.96163 13.618 3.67248 13.0389 4.49364 12.9192C4.63227 12.899 4.7019 12.7377 4.62161 12.6256C4.15664 11.9783 4.08687 11.1017 4.51877 10.372C4.91701 9.69876 5.63898 9.32406 6.38183 9.32406C6.46273 9.32406 6.54408 9.32838 6.62528 9.33746C6.63244 9.33835 6.63975 9.3385 6.64661 9.3385C6.77534 9.3385 6.87223 9.208 6.82684 9.08642C6.54926 8.34343 6.7144 7.47901 7.32501 6.88319C7.52426 6.68827 7.76097 6.53372 8.02156 6.42843C8.28214 6.32314 8.56146 6.26919 8.84346 6.26966C9.11205 6.26966 9.38063 6.31847 9.63429 6.41609C9.65684 6.42472 9.67984 6.42859 9.70224 6.42859C9.80934 6.42859 9.90578 6.33677 9.89572 6.22428C9.82457 5.43679 10.2134 4.64351 10.9614 4.22209C11.2869 4.03805 11.6563 3.94115 12.0324 3.94114C12.4919 3.94114 12.9436 4.08518 13.3156 4.35408C13.3496 4.37833 13.3883 4.38964 13.4265 4.38964C13.5153 4.38964 13.602 4.32908 13.6191 4.23488C13.7592 3.45618 14.3452 2.78848 15.1794 2.57004C15.3611 2.52239 15.5484 2.49823 15.7366 2.49816C16.3953 2.49816 17.0145 2.79652 17.4188 3.29219C17.4566 3.33877 17.5117 3.36109 17.5669 3.36109C17.6385 3.36109 17.7098 3.32359 17.7433 3.25365C18.0853 2.537 18.8285 2.03969 19.692 2.03969Z" fill="#142443"/>
</svg>
